# xmcd CD database file
#
# Track frame offsets:
#        150
#        9140
#        21336
#        32424
#        43652
#        52730
#        67279
#        77359
#        88613
#        99240
#        108791
#        124593
#        132489
#        142789
#        152151
#        162168
#        175303
#        184790
#        192980
#        203419
#        213560
#        223260
#        233584
#        242610
#
# Disc length: 3355 seconds
#
# Revision: 0
# Processed by: cddbd v1.5.2PL0 Copyright (c) Steve Scherf et al.
# Submitted via: CUERipper 2.1.6
#
DISCID=350d1918
DTITLE=Hank Williams - Best of the singles 1947-1958
DYEAR=2018
DGENRE=Country
TTITLE0=Faded love and winter roses
TTITLE1=A message to my mother
TTITLE2=Mother is gone
TTITLE3=A teardrop on a rose
TTITLE4=Alone and forsaken
TTITLE5=At the first fall of snow
TTITLE6=Someday you'll call my name
TTITLE7=The battle of armageddon
TTITLE8=Thank god
TTITLE9=California zephyr
TTITLE10=Thy burdens are greater than mine
TTITLE11=I wish I had a nickel
TTITLE12=There's no room in my heart (for the blues)
TTITLE13=Blue love (in my heart)
TTITLE14=The singing waterfall
TTITLE15=The pale horse and his rider
TTITLE16=A home in heaven
TTITLE17=Ready to go home
TTITLE18=Leave me alone with the blues
TTITLE19=With tears in my eyes
TTITLE20=The waltz of the wind
TTITLE21=No one will ever know
TTITLE22=We live in two different worlds?
TTITLE23=Roly Poly
EXTD=
EXTT0=
EXTT1=
EXTT2=
EXTT3=
EXTT4=
EXTT5=
EXTT6=
EXTT7=
EXTT8=
EXTT9=
EXTT10=
EXTT11=
EXTT12=
EXTT13=
EXTT14=
EXTT15=
EXTT16=
EXTT17=
EXTT18=
EXTT19=
EXTT20=
EXTT21=
EXTT22=
EXTT23=
PLAYORDER=
